<svg width="31" height="31" viewBox="0 0 31 31" fill="none" xmlns="http://www.w3.org/2000/svg">
<path d="M25.7096 14.0415H19.8763V19.8748H16.9596V14.0415H11.1263V11.1248H16.9596V5.2915H19.8763V11.1248H25.7096M27.168 0.916504H9.66797C8.89442 0.916504 8.15255 1.22379 7.60557 1.77078C7.05859 2.31776 6.7513 3.05962 6.7513 3.83317V21.3332C6.7513 22.1067 7.05859 22.8486 7.60557 23.3956C8.15255 23.9425 8.89442 24.2498 9.66797 24.2498H27.168C27.9415 24.2498 28.6834 23.9425 29.2304 23.3956C29.7773 22.8486 30.0846 22.1067 30.0846 21.3332V3.83317C30.0846 3.05962 29.7773 2.31776 29.2304 1.77078C28.6834 1.22379 27.9415 0.916504 27.168 0.916504ZM3.83464 6.74984H0.917969V27.1665C0.917969 27.9401 1.22526 28.6819 1.77224 29.2289C2.31922 29.7759 3.06109 30.0832 3.83464 30.0832H24.2513V27.1665H3.83464V6.74984Z" fill="#F4F4F4"/>
</svg>
