<svg width="40" height="32" viewBox="0 0 40 32" fill="none" xmlns="http://www.w3.org/2000/svg">
<path d="M7.54036 10.2498C8.30286 10.2498 9.03413 9.94694 9.5733 9.40777C10.1125 8.8686 10.4154 8.13733 10.4154 7.37484C10.4154 6.61234 10.1125 5.88107 9.5733 5.3419C9.03413 4.80274 8.30286 4.49984 7.54036 4.49984C6.77787 4.49984 6.0466 4.80274 5.50743 5.3419C4.96827 5.88107 4.66536 6.61234 4.66536 7.37484C4.66536 8.13733 4.96827 8.8686 5.50743 9.40777C6.0466 9.94694 6.77787 10.2498 7.54036 10.2498ZM30.3679 15.1948C31.0579 15.8848 31.4987 16.8432 31.4987 17.9165C31.4987 18.9707 31.077 19.929 30.3679 20.619L20.7845 30.2023C20.0945 30.8923 19.1362 31.3332 18.082 31.3332C17.0279 31.3332 16.0695 30.9115 15.3604 30.2023L1.96286 16.8048C1.2537 16.0957 0.832031 15.1373 0.832031 14.0832V4.49984C0.832031 2.37234 2.53786 0.666504 4.66536 0.666504H14.2487C15.3029 0.666504 16.2612 1.08817 16.9512 1.77817L30.3679 15.1948ZM22.9504 3.944L24.867 2.02734L38.0345 15.1948C38.7437 15.8848 39.1654 16.8623 39.1654 17.9165C39.1654 18.9707 38.7437 19.929 38.0537 20.619L27.742 30.9307L25.8254 29.014L36.7695 17.9165L22.9504 3.944Z" fill="#F4F4F4"/>
</svg>
