<svg width="21" height="21" viewBox="0 0 21 21" fill="none" xmlns="http://www.w3.org/2000/svg">
<path d="M2.08333 18.75H14.5833V20.8333H2.08333C0.9375 20.8333 0 19.8958 0 18.75V5.20833H2.08333M20.8333 2.08333V14.5833C20.8333 15.7292 19.8958 16.6667 18.75 16.6667H6.25C5.10417 16.6667 4.16667 15.7292 4.16667 14.5833V2.08333C4.16667 0.9375 5.10417 0 6.25 0H18.75C19.8958 0 20.8333 0.9375 20.8333 2.08333ZM10.4167 6.25H8.33333V12.5H10.4167M13.5417 4.16667H11.4583V12.5H13.5417M16.6667 9.375H14.5833V12.5H16.6667V9.375Z" fill="#FF7A00"/>
</svg>
